<svg width="110" height="45" viewBox="0 0 110 45" fill="none" xmlns="http://www.w3.org/2000/svg">
<g filter="url(#filter0_d)">
<path d="M10.724 18.388C10.22 19.156 9.776 19.852 9.392 20.476C9.056 21.028 8.744 21.544 8.456 22.024C8.192 22.504 8.06 22.804 8.06 22.924C8.06 23.452 8.084 23.968 8.132 24.472C8.204 24.952 8.312 25.384 8.456 25.768C8.6 26.152 8.78 26.464 8.996 26.704C9.212 26.92 9.488 27.028 9.824 27.028C10.376 27.028 10.844 26.728 11.228 26.128C11.636 25.528 11.84 24.82 11.84 24.004C11.84 23.548 11.78 23.068 11.66 22.564C11.54 22.06 11.408 21.568 11.264 21.088C11.144 20.584 11.024 20.104 10.904 19.648C10.784 19.168 10.724 18.748 10.724 18.388ZM20.876 23.932C20.276 24.82 19.496 25.6 18.536 26.272C17.72 26.872 16.664 27.412 15.368 27.892C14.096 28.372 12.536 28.612 10.688 28.612C9.8 28.612 8.96 28.432 8.168 28.072C7.376 27.736 6.68 27.304 6.08 26.776C5.504 26.248 5.048 25.672 4.712 25.048C4.352 24.424 4.172 23.848 4.172 23.32C4.172 22.792 4.352 22.348 4.712 21.988C5.072 21.628 5.468 21.328 5.9 21.088C6.404 20.824 6.98 20.608 7.628 20.44C7.772 20.2 7.964 19.9 8.204 19.54C8.396 19.228 8.648 18.844 8.96 18.388C9.272 17.908 9.632 17.344 10.04 16.696C10.88 15.424 11.6 14.548 12.2 14.068C12.8 13.564 13.328 13.312 13.784 13.312C13.976 13.312 14.168 13.372 14.36 13.492C14.576 13.588 14.768 13.708 14.936 13.852C15.128 13.996 15.272 14.14 15.368 14.284C15.488 14.428 15.548 14.548 15.548 14.644C15.548 14.764 15.5 14.92 15.404 15.112C15.308 15.28 15.2 15.472 15.08 15.688C14.984 15.88 14.888 16.096 14.792 16.336C14.72 16.552 14.684 16.78 14.684 17.02C14.684 17.74 14.756 18.364 14.9 18.892C15.044 19.42 15.2 19.924 15.368 20.404C15.56 20.86 15.728 21.316 15.872 21.772C16.016 22.204 16.088 22.696 16.088 23.248C16.088 23.728 16.04 24.136 15.944 24.472C15.872 24.784 15.776 25.06 15.656 25.3C15.536 25.564 15.404 25.792 15.26 25.984C15.956 25.792 16.58 25.528 17.132 25.192C17.708 24.832 18.188 24.484 18.572 24.148C19.004 23.74 19.388 23.308 19.724 22.852C19.748 22.78 19.808 22.696 19.904 22.6C19.952 22.552 20.024 22.504 20.12 22.456C20.216 22.384 20.324 22.348 20.444 22.348C20.636 22.348 20.804 22.42 20.948 22.564C21.116 22.708 21.2 22.876 21.2 23.068C21.2 23.164 21.176 23.26 21.128 23.356C21.104 23.428 21.068 23.512 21.02 23.608C20.972 23.704 20.924 23.812 20.876 23.932ZM32.2585 28.36C30.8905 28.36 29.7865 28 28.9465 27.28C28.1065 26.536 27.6865 25.576 27.6865 24.4C27.6865 23.752 27.7825 23.116 27.9745 22.492C28.1665 21.844 28.3825 21.232 28.6225 20.656C28.8625 20.08 29.0785 19.552 29.2705 19.072C29.4625 18.592 29.5585 18.184 29.5585 17.848C29.5585 17.152 29.2945 16.804 28.7665 16.804C28.1425 16.804 27.5065 17.068 26.8585 17.596C26.2105 18.1 25.6225 18.832 25.0945 19.792C24.5905 20.728 24.1705 21.868 23.8345 23.212C23.5225 24.532 23.3665 26.008 23.3665 27.64C23.3665 27.856 23.3185 28.024 23.2225 28.144C23.1505 28.288 22.9825 28.36 22.7185 28.36C22.3585 28.36 21.9745 28.324 21.5665 28.252C21.1585 28.18 20.7745 28.072 20.4145 27.928C20.0545 27.76 19.7665 27.556 19.5505 27.316C19.3105 27.052 19.1905 26.752 19.1905 26.416C19.1905 25.408 19.3225 24.136 19.5865 22.6C19.8505 21.04 20.2345 19.396 20.7385 17.668C21.2425 15.916 21.8425 14.164 22.5385 12.412C23.2345 10.66 24.0145 9.088 24.8785 7.696C25.7425 6.28 26.6785 5.14 27.6865 4.276C28.6945 3.388 29.7625 2.944 30.8905 2.944C31.2985 2.944 31.6945 3.052 32.0785 3.268C32.4625 3.46 32.8105 3.724 33.1225 4.06C33.4345 4.372 33.6745 4.72 33.8425 5.104C34.0345 5.464 34.1305 5.8 34.1305 6.112C34.1305 6.856 33.8905 7.72 33.4105 8.704C32.9305 9.664 32.3905 10.588 31.7905 11.476C31.2145 12.364 30.6745 13.132 30.1705 13.78C29.6665 14.404 29.3785 14.752 29.3065 14.824C29.3305 14.8 29.4265 14.74 29.5945 14.644C29.7865 14.548 30.0145 14.452 30.2785 14.356C30.5425 14.236 30.8425 14.14 31.1785 14.068C31.5385 13.972 31.9105 13.924 32.2945 13.924C32.5585 13.924 32.8225 13.996 33.0865 14.14C33.3745 14.284 33.6265 14.476 33.8425 14.716C34.0585 14.956 34.2385 15.22 34.3825 15.508C34.5265 15.796 34.5985 16.096 34.5985 16.408C34.5985 16.96 34.4785 17.572 34.2385 18.244C33.9985 18.892 33.7345 19.576 33.4465 20.296C33.1585 20.992 32.8945 21.712 32.6545 22.456C32.4145 23.176 32.2945 23.884 32.2945 24.58C32.2945 24.988 32.3905 25.324 32.5825 25.588C32.7985 25.828 33.0865 25.948 33.4465 25.948C33.9265 25.948 34.3945 25.792 34.8505 25.48C35.3305 25.168 35.7505 24.808 36.1105 24.4C36.5425 23.968 36.9385 23.452 37.2985 22.852C37.3225 22.78 37.3825 22.696 37.4785 22.6C37.5265 22.552 37.5985 22.504 37.6945 22.456C37.7905 22.384 37.8985 22.348 38.0185 22.348C38.2105 22.348 38.3785 22.42 38.5225 22.564C38.6905 22.708 38.7745 22.876 38.7745 23.068C38.7745 23.164 38.7505 23.26 38.7025 23.356C38.6785 23.428 38.6425 23.512 38.5945 23.608C38.5465 23.704 38.4985 23.812 38.4505 23.932C37.9225 24.772 37.3345 25.516 36.6865 26.164C36.1345 26.716 35.4745 27.22 34.7065 27.676C33.9625 28.132 33.1465 28.36 32.2585 28.36ZM32.3665 6.076C32.3665 5.596 32.1385 5.356 31.6825 5.356C31.3465 5.356 30.9385 5.644 30.4585 6.22C30.0025 6.772 29.4985 7.552 28.9465 8.56C28.4185 9.544 27.8545 10.72 27.2545 12.088C26.6785 13.456 26.1025 14.944 25.5265 16.552C25.9345 16.216 26.3905 15.772 26.8945 15.22C27.3985 14.668 27.9025 14.068 28.4065 13.42C28.9105 12.772 29.4025 12.088 29.8825 11.368C30.3625 10.648 30.7825 9.964 31.1425 9.316C31.5025 8.644 31.7905 8.032 32.0065 7.48C32.2465 6.904 32.3665 6.436 32.3665 6.076ZM54.4806 23.932C54.0726 24.532 53.5566 25.048 52.9326 25.48C52.4046 25.888 51.7446 26.248 50.9526 26.56C50.1846 26.872 49.2726 27.028 48.2166 27.028C47.7846 27.028 47.3166 26.992 46.8126 26.92C46.2366 27.376 45.6006 27.736 44.9046 28C44.2086 28.24 43.4766 28.36 42.7086 28.36C41.9646 28.36 41.2446 28.228 40.5486 27.964C39.8766 27.7 39.2766 27.34 38.7486 26.884C38.2446 26.428 37.8366 25.888 37.5246 25.264C37.2366 24.64 37.0926 23.98 37.0926 23.284C37.0926 21.772 37.3446 20.44 37.8486 19.288C38.3766 18.112 39.0486 17.128 39.8646 16.336C40.6806 15.544 41.5806 14.944 42.5646 14.536C43.5486 14.128 44.5086 13.924 45.4446 13.924C46.1886 13.924 46.8846 14.044 47.5326 14.284C48.1806 14.524 48.7326 14.884 49.1886 15.364C49.6686 15.82 50.0406 16.384 50.3046 17.056C50.5926 17.704 50.7366 18.436 50.7366 19.252C50.7366 20.212 50.5326 21.22 50.1246 22.276C49.7406 23.332 49.2006 24.316 48.5046 25.228C48.6006 25.252 48.6846 25.276 48.7566 25.3C48.8526 25.3 48.9606 25.3 49.0806 25.3C49.7046 25.3 50.2686 25.18 50.7726 24.94C51.2766 24.676 51.7206 24.388 52.1046 24.076C52.5366 23.716 52.9446 23.308 53.3286 22.852C53.3526 22.78 53.4126 22.696 53.5086 22.6C53.5566 22.552 53.6286 22.504 53.7246 22.456C53.8206 22.384 53.9286 22.348 54.0486 22.348C54.2406 22.348 54.4086 22.42 54.5526 22.564C54.7206 22.708 54.8046 22.876 54.8046 23.068C54.8046 23.164 54.7806 23.26 54.7326 23.356C54.7086 23.428 54.6726 23.512 54.6246 23.608C54.5766 23.704 54.5286 23.812 54.4806 23.932ZM41.3406 24.184C41.3406 24.904 41.4846 25.492 41.7726 25.948C42.0846 26.404 42.5166 26.632 43.0686 26.632C43.4526 26.632 43.8246 26.488 44.1846 26.2C43.7766 25.936 43.5726 25.648 43.5726 25.336C43.5726 25.144 43.6326 24.94 43.7526 24.724C43.8966 24.508 44.0646 24.316 44.2566 24.148C44.4486 23.98 44.6406 23.848 44.8326 23.752C45.0486 23.632 45.2286 23.572 45.3726 23.572C45.4926 23.572 45.6246 23.596 45.7686 23.644C46.1286 22.732 46.4046 21.772 46.5966 20.764C46.7886 19.732 46.8846 18.82 46.8846 18.028C46.8846 17.212 46.7526 16.636 46.4886 16.3C46.2246 15.94 45.8886 15.76 45.4806 15.76C45.0726 15.76 44.6286 15.976 44.1486 16.408C43.6686 16.816 43.2126 17.404 42.7806 18.172C42.3726 18.916 42.0246 19.804 41.7366 20.836C41.4726 21.844 41.3406 22.96 41.3406 24.184ZM62.4478 24.688C62.4478 25.096 62.5558 25.408 62.7718 25.624C62.9878 25.84 63.2758 25.948 63.6358 25.948C64.1158 25.948 64.5838 25.792 65.0398 25.48C65.5198 25.168 65.9398 24.808 66.2998 24.4C66.7318 23.968 67.1278 23.452 67.4878 22.852C67.5118 22.78 67.5718 22.696 67.6678 22.6C67.7158 22.552 67.7878 22.504 67.8838 22.456C67.9798 22.384 68.0878 22.348 68.2078 22.348C68.3998 22.348 68.5678 22.42 68.7118 22.564C68.8798 22.708 68.9638 22.876 68.9638 23.068C68.9638 23.164 68.9398 23.26 68.8918 23.356C68.8678 23.428 68.8318 23.512 68.7838 23.608C68.7358 23.704 68.6878 23.812 68.6398 23.932C68.1118 24.772 67.5238 25.516 66.8758 26.164C66.3238 26.716 65.6638 27.22 64.8958 27.676C64.1518 28.132 63.3358 28.36 62.4478 28.36C61.7518 28.36 61.1278 28.264 60.5758 28.072C60.0238 27.88 59.5438 27.628 59.1358 27.316C58.7278 26.98 58.4158 26.596 58.1998 26.164C57.9838 25.732 57.8758 25.264 57.8758 24.76C57.8758 23.968 57.9958 23.224 58.2358 22.528C58.4758 21.832 58.7278 21.196 58.9918 20.62C59.2798 20.044 59.5438 19.54 59.7838 19.108C60.0238 18.652 60.1438 18.28 60.1438 17.992C60.1438 17.8 60.0238 17.656 59.7838 17.56C59.5678 17.464 59.3278 17.38 59.0638 17.308C58.7518 17.236 58.3918 17.176 57.9838 17.128C57.2878 18.88 56.6278 20.32 56.0038 21.448C55.3798 22.552 54.8758 23.38 54.4918 23.932C54.4438 24.004 54.3478 24.112 54.2038 24.256C54.0838 24.4 53.9158 24.472 53.6998 24.472C53.5078 24.472 53.3398 24.4 53.1958 24.256C53.0278 24.088 52.9438 23.908 52.9438 23.716C52.9438 23.548 53.0038 23.392 53.1238 23.248C53.2198 23.08 53.2918 22.948 53.3398 22.852C53.6758 22.372 54.1438 21.616 54.7438 20.584C55.3678 19.528 55.9438 18.148 56.4718 16.444C56.2318 16.276 56.0278 16.06 55.8598 15.796C55.7158 15.58 55.5838 15.304 55.4638 14.968C55.3438 14.632 55.2838 14.236 55.2838 13.78C55.2838 13.42 55.3438 13.084 55.4638 12.772C55.6078 12.436 55.7878 12.148 56.0038 11.908C56.2198 11.668 56.4478 11.476 56.6878 11.332C56.9278 11.188 57.1558 11.116 57.3718 11.116C57.6118 11.116 57.8638 11.188 58.1278 11.332C58.3918 11.452 58.6318 11.608 58.8478 11.8C59.0638 11.968 59.2438 12.172 59.3878 12.412C59.5318 12.628 59.6038 12.82 59.6038 12.988C59.6038 13.468 59.5198 13.864 59.3518 14.176C59.2078 14.488 59.1358 14.788 59.1358 15.076C59.1358 15.34 59.2798 15.532 59.5678 15.652C59.8558 15.772 60.2158 15.832 60.6478 15.832C61.0558 15.832 61.3918 15.808 61.6558 15.76C61.9438 15.712 62.1958 15.664 62.4118 15.616C62.6278 15.544 62.8318 15.484 63.0238 15.436C63.2158 15.388 63.4198 15.364 63.6358 15.364C64.0678 15.364 64.4158 15.532 64.6798 15.868C64.9678 16.204 65.1118 16.612 65.1118 17.092C65.1118 17.5 64.9678 17.992 64.6798 18.568C64.4158 19.12 64.1158 19.732 63.7798 20.404C63.4438 21.076 63.1318 21.784 62.8438 22.528C62.5798 23.248 62.4478 23.968 62.4478 24.688ZM73.4127 25.948C73.8927 25.948 74.3607 25.792 74.8167 25.48C75.2967 25.168 75.7167 24.808 76.0767 24.4C76.5087 23.968 76.9047 23.452 77.2647 22.852C77.2887 22.78 77.3487 22.696 77.4447 22.6C77.4927 22.552 77.5647 22.504 77.6607 22.456C77.7567 22.384 77.8647 22.348 77.9847 22.348C78.1767 22.348 78.3447 22.42 78.4887 22.564C78.6567 22.708 78.7407 22.876 78.7407 23.068C78.7407 23.164 78.7167 23.26 78.6687 23.356C78.6447 23.428 78.6087 23.512 78.5607 23.608C78.5127 23.704 78.4647 23.812 78.4167 23.932C77.8887 24.772 77.3007 25.516 76.6527 26.164C76.1007 26.716 75.4407 27.22 74.6727 27.676C73.9287 28.132 73.1127 28.36 72.2247 28.36C71.6487 28.36 71.0607 28.252 70.4607 28.036C69.8607 27.844 69.3087 27.556 68.8047 27.172C68.3247 26.788 67.9167 26.332 67.5807 25.804C67.2687 25.276 67.1127 24.7 67.1127 24.076C67.1127 23.572 67.1727 22.96 67.2927 22.24C67.4127 21.496 67.5807 20.692 67.7967 19.828C68.0127 18.964 68.2527 18.052 68.5167 17.092C68.8047 16.132 69.1047 15.184 69.4167 14.248H68.4447C68.2527 14.248 68.1567 14.14 68.1567 13.924C68.1567 13.732 68.2647 13.48 68.4807 13.168C68.7207 12.832 68.9727 12.664 69.2367 12.664H69.9567C70.3167 11.68 70.6647 10.78 71.0007 9.964C71.3607 9.124 71.7087 8.416 72.0447 7.84C72.1407 7.648 72.2727 7.492 72.4407 7.372C72.6087 7.228 72.8007 7.156 73.0167 7.156C73.2807 7.156 73.5687 7.24 73.8807 7.408C74.2167 7.576 74.5287 7.78 74.8167 8.02C75.1047 8.236 75.3447 8.464 75.5367 8.704C75.7287 8.944 75.8247 9.148 75.8247 9.316C75.8247 9.484 75.7047 9.868 75.4647 10.468C75.2487 11.044 74.9727 11.776 74.6367 12.664H77.0487C77.2407 12.664 77.3367 12.772 77.3367 12.988C77.3367 13.084 77.3007 13.204 77.2287 13.348C77.1567 13.492 77.0607 13.636 76.9407 13.78C76.8447 13.9 76.7367 14.008 76.6167 14.104C76.4967 14.2 76.3767 14.248 76.2567 14.248H74.0247C73.7367 15.04 73.4367 15.88 73.1247 16.768C72.8367 17.656 72.5727 18.532 72.3327 19.396C72.0927 20.26 71.8887 21.1 71.7207 21.916C71.5767 22.708 71.5047 23.428 71.5047 24.076C71.5047 24.628 71.6847 25.084 72.0447 25.444C72.4287 25.78 72.8847 25.948 73.4127 25.948ZM88.8373 5.86C88.8373 5.524 88.6933 5.356 88.4053 5.356C88.0693 5.356 87.6253 5.728 87.0733 6.472C86.5453 7.216 85.9813 8.188 85.3813 9.388C84.8053 10.588 84.2293 11.932 83.6533 13.42C83.0773 14.908 82.6093 16.408 82.2493 17.92C82.6573 17.584 83.1013 17.104 83.5813 16.48C84.0853 15.856 84.5773 15.16 85.0573 14.392C85.5373 13.6 86.0053 12.784 86.4613 11.944C86.9173 11.104 87.3133 10.3 87.6493 9.532C88.0093 8.74 88.2973 8.02 88.5133 7.372C88.7293 6.724 88.8373 6.22 88.8373 5.86ZM82.5373 28.36C81.8173 28.36 81.1213 28.24 80.4493 28C79.8013 27.76 79.2253 27.412 78.7213 26.956C78.2173 26.476 77.8093 25.9 77.4973 25.228C77.2092 24.556 77.0652 23.8 77.0652 22.96C77.0652 21.76 77.1973 20.428 77.4613 18.964C77.7493 17.5 78.1453 16.036 78.6493 14.572C79.1533 13.084 79.7293 11.644 80.3773 10.252C81.0493 8.86 81.7813 7.624 82.5732 6.544C83.3653 5.44 84.1813 4.564 85.0213 3.916C85.8853 3.268 86.7493 2.944 87.6133 2.944C88.0213 2.944 88.4053 3.04 88.7653 3.232C89.1253 3.424 89.4373 3.664 89.7013 3.952C89.9893 4.24 90.2173 4.564 90.3853 4.924C90.5533 5.26 90.6373 5.584 90.6373 5.896C90.6373 6.4 90.4933 7.048 90.2053 7.84C89.9413 8.608 89.5813 9.448 89.1253 10.36C88.6693 11.248 88.1293 12.172 87.5053 13.132C86.9053 14.092 86.2693 15.028 85.5973 15.94C84.9493 16.828 84.2893 17.668 83.6173 18.46C82.9453 19.228 82.3093 19.864 81.7093 20.368C81.6613 20.656 81.6133 20.956 81.5653 21.268C81.5173 21.532 81.4813 21.832 81.4573 22.168C81.4333 22.48 81.4213 22.792 81.4213 23.104C81.4213 23.944 81.6133 24.628 81.9973 25.156C82.4053 25.684 82.9813 25.948 83.7253 25.948C84.2053 25.948 84.6733 25.792 85.1293 25.48C85.6093 25.168 86.0293 24.808 86.3893 24.4C86.8213 23.968 87.2173 23.452 87.5773 22.852C87.6013 22.78 87.6613 22.696 87.7573 22.6C87.8053 22.552 87.8773 22.504 87.9733 22.456C88.0693 22.384 88.1773 22.348 88.2973 22.348C88.4893 22.348 88.6573 22.42 88.8013 22.564C88.9693 22.708 89.0533 22.876 89.0533 23.068C89.0533 23.164 89.0293 23.26 88.9813 23.356C88.9573 23.428 88.9213 23.512 88.8733 23.608C88.8253 23.704 88.7773 23.812 88.7293 23.932C88.2013 24.772 87.6133 25.516 86.9653 26.164C86.4133 26.716 85.7533 27.22 84.9853 27.676C84.2413 28.132 83.4253 28.36 82.5373 28.36ZM99.606 27.064C100.758 26.392 101.706 25.708 102.45 25.012C103.194 24.292 103.83 23.572 104.358 22.852C104.406 22.78 104.478 22.696 104.574 22.6C104.646 22.552 104.73 22.504 104.826 22.456C104.922 22.384 105.03 22.348 105.15 22.348C105.366 22.348 105.546 22.42 105.69 22.564C105.834 22.708 105.906 22.876 105.906 23.068C105.906 23.164 105.882 23.26 105.834 23.356C105.786 23.428 105.738 23.512 105.69 23.608C105.618 23.704 105.558 23.812 105.51 23.932C104.886 24.772 104.07 25.636 103.062 26.524C102.054 27.388 100.722 28.252 99.066 29.116C98.754 30.196 98.394 31.276 97.986 32.356C97.602 33.46 97.122 34.444 96.546 35.308C95.97 36.172 95.274 36.88 94.458 37.432C93.666 37.984 92.73 38.26 91.65 38.26C91.098 38.26 90.57 38.164 90.066 37.972C89.586 37.804 89.154 37.564 88.77 37.252C88.41 36.964 88.122 36.604 87.906 36.172C87.69 35.764 87.582 35.32 87.582 34.84C87.582 34.24 87.762 33.676 88.122 33.148C88.506 32.644 89.034 32.164 89.706 31.708C90.378 31.252 91.17 30.808 92.082 30.376C93.018 29.968 94.026 29.548 95.106 29.116C95.298 28.444 95.454 27.808 95.574 27.208C95.694 26.608 95.802 26.092 95.898 25.66C95.61 25.996 95.274 26.332 94.89 26.668C94.53 26.98 94.134 27.268 93.702 27.532C93.27 27.772 92.814 27.964 92.334 28.108C91.878 28.276 91.422 28.36 90.966 28.36C90.558 28.36 90.126 28.264 89.67 28.072C89.238 27.904 88.842 27.664 88.482 27.352C88.122 27.04 87.822 26.668 87.582 26.236C87.342 25.804 87.222 25.348 87.222 24.868C87.222 24.22 87.33 23.416 87.546 22.456C87.762 21.496 88.014 20.524 88.302 19.54C88.59 18.532 88.89 17.584 89.202 16.696C89.538 15.808 89.814 15.112 90.03 14.608C90.126 14.416 90.258 14.26 90.426 14.14C90.594 13.996 90.786 13.924 91.002 13.924C91.266 13.924 91.566 14.008 91.902 14.176C92.238 14.344 92.55 14.536 92.838 14.752C93.126 14.968 93.366 15.196 93.558 15.436C93.75 15.652 93.846 15.832 93.846 15.976C93.846 16.456 93.726 17.044 93.486 17.74C93.246 18.436 92.97 19.192 92.658 20.008C92.37 20.824 92.106 21.664 91.866 22.528C91.626 23.392 91.506 24.22 91.506 25.012C91.506 25.3 91.578 25.552 91.722 25.768C91.866 25.984 92.07 26.092 92.334 26.092C92.622 26.092 92.922 26.02 93.234 25.876C93.546 25.708 93.846 25.504 94.134 25.264C94.422 25 94.686 24.724 94.926 24.436C95.166 24.124 95.358 23.824 95.502 23.536C95.838 22.912 96.15 22.216 96.438 21.448C96.726 20.656 96.99 19.864 97.23 19.072C97.494 18.256 97.722 17.464 97.914 16.696C98.13 15.928 98.334 15.232 98.526 14.608C98.574 14.392 98.694 14.224 98.886 14.104C99.078 13.984 99.294 13.924 99.534 13.924C99.798 13.924 100.086 14.008 100.398 14.176C100.734 14.344 101.046 14.536 101.334 14.752C101.622 14.968 101.862 15.196 102.054 15.436C102.246 15.652 102.342 15.832 102.342 15.976C102.342 16.24 102.27 16.708 102.126 17.38C101.982 18.052 101.802 18.844 101.586 19.756C101.37 20.644 101.118 21.592 100.83 22.6C100.566 23.608 100.302 24.556 100.038 25.444L99.606 27.064ZM90.75 36.352C91.134 36.352 91.506 36.208 91.866 35.92C92.226 35.656 92.562 35.296 92.874 34.84C93.186 34.384 93.474 33.844 93.738 33.22C94.002 32.62 94.242 31.996 94.458 31.348C93.81 31.708 93.222 32.08 92.694 32.464C92.166 32.872 91.71 33.268 91.326 33.652C90.942 34.036 90.642 34.396 90.426 34.732C90.21 35.092 90.102 35.392 90.102 35.632C90.102 36.112 90.318 36.352 90.75 36.352Z" fill="white"/>
</g>
<defs>
<filter id="filter0_d" x="0.171875" y="0.944092" width="109.734" height="43.316" filterUnits="userSpaceOnUse" color-interpolation-filters="sRGB">
<feFlood flood-opacity="0" result="BackgroundImageFix"/>
<feColorMatrix in="SourceAlpha" type="matrix" values="0 0 0 0 0 0 0 0 0 0 0 0 0 0 0 0 0 0 127 0"/>
<feOffset dy="2"/>
<feGaussianBlur stdDeviation="2"/>
<feColorMatrix type="matrix" values="0 0 0 0 0 0 0 0 0 0 0 0 0 0 0 0 0 0 0.15 0"/>
<feBlend mode="normal" in2="BackgroundImageFix" result="effect1_dropShadow"/>
<feBlend mode="normal" in="SourceGraphic" in2="effect1_dropShadow" result="shape"/>
</filter>
</defs>
</svg>
