<svg width="15" height="15" viewBox="0 0 15 15" fill="none" xmlns="http://www.w3.org/2000/svg">
<circle cx="7.5" cy="7.5" r="7.5" fill="white"/>
<path d="M5.21621 8.04312L4.86813 9.34257L3.59588 9.36948C3.21566 8.66427 3 7.85741 3 6.99999C3 6.17087 3.20164 5.389 3.55906 4.70054H3.55934L4.69199 4.90819L5.18816 6.03405C5.08432 6.33681 5.02771 6.66181 5.02771 6.99999C5.02775 7.36702 5.09424 7.71868 5.21621 8.04312Z" fill="#FBBB00"/>
<path d="M12.9127 6.06595C12.9701 6.36841 13.0001 6.68077 13.0001 7.00001C13.0001 7.35798 12.9624 7.70716 12.8907 8.04398C12.6473 9.19013 12.0113 10.1909 11.1303 10.8992L11.13 10.8989L9.70338 10.8261L9.50147 9.56568C10.0861 9.22282 10.543 8.68628 10.7836 8.04398H8.10999V6.06595H10.8226H12.9127Z" fill="#518EF8"/>
<path d="M11.13 10.8989L11.1303 10.8992C10.2734 11.5879 9.18495 12 8.00007 12C6.09595 12 4.44046 10.9357 3.59595 9.3695L5.21628 8.04314C5.63853 9.17005 6.72561 9.97226 8.00007 9.97226C8.54786 9.97226 9.06106 9.82417 9.50143 9.56566L11.13 10.8989Z" fill="#28B446"/>
<path d="M11.1915 3.15109L9.57172 4.47719C9.11596 4.1923 8.57721 4.02773 8.00002 4.02773C6.69672 4.02773 5.5893 4.86674 5.1882 6.03406L3.55936 4.70055H3.55908C4.39123 3.09615 6.0676 2 8.00002 2C9.2132 2 10.3256 2.43215 11.1915 3.15109Z" fill="#F14336"/>
</svg>
