<svg width="99" height="41" viewBox="0 0 99 41" fill="none" xmlns="http://www.w3.org/2000/svg">
<g filter="url(#filter0_d)">
<path d="M10.088 16.456C9.64 17.1387 9.24533 17.7573 8.904 18.312C8.60533 18.8027 8.328 19.2613 8.072 19.688C7.83733 20.1147 7.72 20.3813 7.72 20.488C7.72 20.9573 7.74133 21.416 7.784 21.864C7.848 22.2907 7.944 22.6747 8.072 23.016C8.2 23.3573 8.36 23.6347 8.552 23.848C8.744 24.04 8.98933 24.136 9.288 24.136C9.77867 24.136 10.1947 23.8693 10.536 23.336C10.8987 22.8027 11.08 22.1733 11.08 21.448C11.08 21.0427 11.0267 20.616 10.92 20.168C10.8133 19.72 10.696 19.2827 10.568 18.856C10.4613 18.408 10.3547 17.9813 10.248 17.576C10.1413 17.1493 10.088 16.776 10.088 16.456ZM19.112 21.384C18.5787 22.1733 17.8853 22.8667 17.032 23.464C16.3067 23.9973 15.368 24.4773 14.216 24.904C13.0853 25.3307 11.6987 25.544 10.056 25.544C9.26667 25.544 8.52 25.384 7.816 25.064C7.112 24.7653 6.49333 24.3813 5.96 23.912C5.448 23.4427 5.04267 22.9307 4.744 22.376C4.424 21.8213 4.264 21.3093 4.264 20.84C4.264 20.3707 4.424 19.976 4.744 19.656C5.064 19.336 5.416 19.0693 5.8 18.856C6.248 18.6213 6.76 18.4293 7.336 18.28C7.464 18.0667 7.63467 17.8 7.848 17.48C8.01867 17.2027 8.24267 16.8613 8.52 16.456C8.79733 16.0293 9.11733 15.528 9.48 14.952C10.2267 13.8213 10.8667 13.0427 11.4 12.616C11.9333 12.168 12.4027 11.944 12.808 11.944C12.9787 11.944 13.1493 11.9973 13.32 12.104C13.512 12.1893 13.6827 12.296 13.832 12.424C14.0027 12.552 14.1307 12.68 14.216 12.808C14.3227 12.936 14.376 13.0427 14.376 13.128C14.376 13.2347 14.3333 13.3733 14.248 13.544C14.1627 13.6933 14.0667 13.864 13.96 14.056C13.8747 14.2267 13.7893 14.4187 13.704 14.632C13.64 14.824 13.608 15.0267 13.608 15.24C13.608 15.88 13.672 16.4347 13.8 16.904C13.928 17.3733 14.0667 17.8213 14.216 18.248C14.3867 18.6533 14.536 19.0587 14.664 19.464C14.792 19.848 14.856 20.2853 14.856 20.776C14.856 21.2027 14.8133 21.5653 14.728 21.864C14.664 22.1413 14.5787 22.3867 14.472 22.6C14.3653 22.8347 14.248 23.0373 14.12 23.208C14.7387 23.0373 15.2933 22.8027 15.784 22.504C16.296 22.184 16.7227 21.8747 17.064 21.576C17.448 21.2133 17.7893 20.8293 18.088 20.424C18.1093 20.36 18.1627 20.2853 18.248 20.2C18.2907 20.1573 18.3547 20.1147 18.44 20.072C18.5253 20.008 18.6213 19.976 18.728 19.976C18.8987 19.976 19.048 20.04 19.176 20.168C19.3253 20.296 19.4 20.4453 19.4 20.616C19.4 20.7013 19.3787 20.7867 19.336 20.872C19.3147 20.936 19.2827 21.0107 19.24 21.096C19.1973 21.1813 19.1547 21.2773 19.112 21.384ZM29.2298 25.32C28.0138 25.32 27.0324 25 26.2858 24.36C25.5391 23.6987 25.1658 22.8453 25.1658 21.8C25.1658 21.224 25.2511 20.6587 25.4218 20.104C25.5924 19.528 25.7844 18.984 25.9978 18.472C26.2111 17.96 26.4031 17.4907 26.5738 17.064C26.7444 16.6373 26.8298 16.2747 26.8298 15.976C26.8298 15.3573 26.5951 15.048 26.1258 15.048C25.5711 15.048 25.0058 15.2827 24.4298 15.752C23.8538 16.2 23.3311 16.8507 22.8618 17.704C22.4138 18.536 22.0404 19.5493 21.7418 20.744C21.4644 21.9173 21.3258 23.2293 21.3258 24.68C21.3258 24.872 21.2831 25.0213 21.1978 25.128C21.1338 25.256 20.9844 25.32 20.7498 25.32C20.4298 25.32 20.0884 25.288 19.7258 25.224C19.3631 25.16 19.0218 25.064 18.7018 24.936C18.3818 24.7867 18.1258 24.6053 17.9337 24.392C17.7204 24.1573 17.6137 23.8907 17.6137 23.592C17.6137 22.696 17.7311 21.5653 17.9657 20.2C18.2004 18.8133 18.5418 17.352 18.9898 15.816C19.4378 14.2587 19.9711 12.7013 20.5898 11.144C21.2084 9.58667 21.9018 8.18933 22.6698 6.952C23.4378 5.69333 24.2698 4.68 25.1658 3.912C26.0618 3.12267 27.0111 2.728 28.0138 2.728C28.3764 2.728 28.7284 2.824 29.0698 3.016C29.4111 3.18667 29.7204 3.42133 29.9978 3.72C30.2751 3.99733 30.4884 4.30667 30.6378 4.648C30.8084 4.968 30.8938 5.26667 30.8938 5.544C30.8938 6.20533 30.6804 6.97333 30.2538 7.848C29.8271 8.70133 29.3471 9.52267 28.8138 10.312C28.3018 11.1013 27.8218 11.784 27.3738 12.36C26.9258 12.9147 26.6698 13.224 26.6058 13.288C26.6271 13.2667 26.7124 13.2133 26.8618 13.128C27.0324 13.0427 27.2351 12.9573 27.4698 12.872C27.7044 12.7653 27.9711 12.68 28.2698 12.616C28.5898 12.5307 28.9204 12.488 29.2618 12.488C29.4964 12.488 29.7311 12.552 29.9658 12.68C30.2218 12.808 30.4458 12.9787 30.6378 13.192C30.8298 13.4053 30.9898 13.64 31.1178 13.896C31.2458 14.152 31.3098 14.4187 31.3098 14.696C31.3098 15.1867 31.2031 15.7307 30.9898 16.328C30.7764 16.904 30.5418 17.512 30.2858 18.152C30.0298 18.7707 29.7951 19.4107 29.5818 20.072C29.3684 20.712 29.2618 21.3413 29.2618 21.96C29.2618 22.3227 29.3471 22.6213 29.5178 22.856C29.7098 23.0693 29.9658 23.176 30.2858 23.176C30.7124 23.176 31.1284 23.0373 31.5338 22.76C31.9604 22.4827 32.3338 22.1627 32.6538 21.8C33.0378 21.416 33.3898 20.9573 33.7098 20.424C33.7311 20.36 33.7844 20.2853 33.8698 20.2C33.9124 20.1573 33.9764 20.1147 34.0618 20.072C34.1471 20.008 34.2431 19.976 34.3498 19.976C34.5204 19.976 34.6698 20.04 34.7978 20.168C34.9471 20.296 35.0218 20.4453 35.0218 20.616C35.0218 20.7013 35.0004 20.7867 34.9578 20.872C34.9364 20.936 34.9044 21.0107 34.8618 21.096C34.8191 21.1813 34.7764 21.2773 34.7338 21.384C34.2644 22.1307 33.7418 22.792 33.1658 23.368C32.6751 23.8587 32.0884 24.3067 31.4058 24.712C30.7444 25.1173 30.0191 25.32 29.2298 25.32ZM29.3258 5.512C29.3258 5.08533 29.1231 4.872 28.7178 4.872C28.4191 4.872 28.0564 5.128 27.6298 5.64C27.2244 6.13067 26.7764 6.824 26.2858 7.72C25.8164 8.59467 25.3151 9.64 24.7818 10.856C24.2698 12.072 23.7578 13.3947 23.2458 14.824C23.6084 14.5253 24.0138 14.1307 24.4618 13.64C24.9098 13.1493 25.3578 12.616 25.8058 12.04C26.2538 11.464 26.6911 10.856 27.1178 10.216C27.5444 9.576 27.9178 8.968 28.2378 8.392C28.5578 7.79467 28.8138 7.25067 29.0058 6.76C29.2191 6.248 29.3258 5.832 29.3258 5.512ZM48.9828 21.384C48.6201 21.9173 48.1614 22.376 47.6068 22.76C47.1374 23.1227 46.5508 23.4427 45.8468 23.72C45.1641 23.9973 44.3534 24.136 43.4148 24.136C43.0308 24.136 42.6148 24.104 42.1667 24.04C41.6548 24.4453 41.0894 24.7653 40.4708 25C39.8521 25.2133 39.2014 25.32 38.5188 25.32C37.8574 25.32 37.2174 25.2027 36.5988 24.968C36.0014 24.7333 35.4681 24.4133 34.9988 24.008C34.5508 23.6027 34.1881 23.1227 33.9108 22.568C33.6547 22.0133 33.5267 21.4267 33.5267 20.808C33.5267 19.464 33.7508 18.28 34.1988 17.256C34.6681 16.2107 35.2654 15.336 35.9908 14.632C36.7161 13.928 37.5161 13.3947 38.3908 13.032C39.2654 12.6693 40.1188 12.488 40.9508 12.488C41.6121 12.488 42.2308 12.5947 42.8068 12.808C43.3828 13.0213 43.8734 13.3413 44.2788 13.768C44.7054 14.1733 45.0361 14.6747 45.2708 15.272C45.5268 15.848 45.6548 16.4987 45.6548 17.224C45.6548 18.0773 45.4734 18.9733 45.1108 19.912C44.7694 20.8507 44.2894 21.7253 43.6708 22.536C43.7561 22.5573 43.8308 22.5787 43.8948 22.6C43.9801 22.6 44.0761 22.6 44.1828 22.6C44.7374 22.6 45.2388 22.4933 45.6868 22.28C46.1348 22.0453 46.5294 21.7893 46.8708 21.512C47.2548 21.192 47.6174 20.8293 47.9588 20.424C47.9801 20.36 48.0334 20.2853 48.1188 20.2C48.1614 20.1573 48.2254 20.1147 48.3108 20.072C48.3961 20.008 48.4921 19.976 48.5988 19.976C48.7694 19.976 48.9188 20.04 49.0468 20.168C49.1961 20.296 49.2708 20.4453 49.2708 20.616C49.2708 20.7013 49.2494 20.7867 49.2068 20.872C49.1854 20.936 49.1534 21.0107 49.1108 21.096C49.0681 21.1813 49.0254 21.2773 48.9828 21.384ZM37.3028 21.608C37.3028 22.248 37.4308 22.7707 37.6868 23.176C37.9641 23.5813 38.3481 23.784 38.8388 23.784C39.1801 23.784 39.5108 23.656 39.8308 23.4C39.4681 23.1653 39.2868 22.9093 39.2868 22.632C39.2868 22.4613 39.3401 22.28 39.4468 22.088C39.5748 21.896 39.7241 21.7253 39.8948 21.576C40.0654 21.4267 40.2361 21.3093 40.4068 21.224C40.5988 21.1173 40.7588 21.064 40.8868 21.064C40.9934 21.064 41.1108 21.0853 41.2388 21.128C41.5588 20.3173 41.8041 19.464 41.9748 18.568C42.1454 17.6507 42.2308 16.84 42.2308 16.136C42.2308 15.4107 42.1134 14.8987 41.8788 14.6C41.6441 14.28 41.3454 14.12 40.9828 14.12C40.6201 14.12 40.2254 14.312 39.7988 14.696C39.3721 15.0587 38.9668 15.5813 38.5828 16.264C38.2201 16.9253 37.9108 17.7147 37.6548 18.632C37.4201 19.528 37.3028 20.52 37.3028 21.608ZM56.0648 22.056C56.0648 22.4187 56.1608 22.696 56.3528 22.888C56.5448 23.08 56.8008 23.176 57.1208 23.176C57.5474 23.176 57.9634 23.0373 58.3688 22.76C58.7954 22.4827 59.1688 22.1627 59.4888 21.8C59.8728 21.416 60.2248 20.9573 60.5448 20.424C60.5661 20.36 60.6194 20.2853 60.7048 20.2C60.7474 20.1573 60.8114 20.1147 60.8968 20.072C60.9821 20.008 61.0781 19.976 61.1848 19.976C61.3554 19.976 61.5048 20.04 61.6328 20.168C61.7821 20.296 61.8568 20.4453 61.8568 20.616C61.8568 20.7013 61.8354 20.7867 61.7928 20.872C61.7714 20.936 61.7394 21.0107 61.6968 21.096C61.6541 21.1813 61.6114 21.2773 61.5688 21.384C61.0994 22.1307 60.5768 22.792 60.0008 23.368C59.5101 23.8587 58.9234 24.3067 58.2408 24.712C57.5794 25.1173 56.8541 25.32 56.0648 25.32C55.4461 25.32 54.8914 25.2347 54.4008 25.064C53.9101 24.8933 53.4834 24.6693 53.1208 24.392C52.7581 24.0933 52.4808 23.752 52.2888 23.368C52.0968 22.984 52.0008 22.568 52.0008 22.12C52.0008 21.416 52.1074 20.7547 52.3208 20.136C52.5341 19.5173 52.7581 18.952 52.9928 18.44C53.2488 17.928 53.4834 17.48 53.6968 17.096C53.9101 16.6907 54.0168 16.36 54.0168 16.104C54.0168 15.9333 53.9101 15.8053 53.6968 15.72C53.5048 15.6347 53.2914 15.56 53.0568 15.496C52.7794 15.432 52.4594 15.3787 52.0968 15.336C51.4781 16.8933 50.8914 18.1733 50.3368 19.176C49.7821 20.1573 49.3341 20.8933 48.9928 21.384C48.9501 21.448 48.8648 21.544 48.7368 21.672C48.6301 21.8 48.4808 21.864 48.2888 21.864C48.1181 21.864 47.9688 21.8 47.8407 21.672C47.6914 21.5227 47.6167 21.3627 47.6167 21.192C47.6167 21.0427 47.6701 20.904 47.7767 20.776C47.8621 20.6267 47.9261 20.5093 47.9688 20.424C48.2674 19.9973 48.6834 19.3253 49.2168 18.408C49.7714 17.4693 50.2834 16.2427 50.7528 14.728C50.5394 14.5787 50.3581 14.3867 50.2088 14.152C50.0808 13.96 49.9634 13.7147 49.8568 13.416C49.7501 13.1173 49.6968 12.7653 49.6968 12.36C49.6968 12.04 49.7501 11.7413 49.8568 11.464C49.9848 11.1653 50.1448 10.9093 50.3368 10.696C50.5288 10.4827 50.7314 10.312 50.9448 10.184C51.1581 10.056 51.3608 9.992 51.5528 9.992C51.7661 9.992 51.9901 10.056 52.2248 10.184C52.4594 10.2907 52.6728 10.4293 52.8648 10.6C53.0568 10.7493 53.2168 10.9307 53.3448 11.144C53.4728 11.336 53.5368 11.5067 53.5368 11.656C53.5368 12.0827 53.4621 12.4347 53.3128 12.712C53.1848 12.9893 53.1208 13.256 53.1208 13.512C53.1208 13.7467 53.2488 13.9173 53.5048 14.024C53.7608 14.1307 54.0808 14.184 54.4648 14.184C54.8274 14.184 55.1261 14.1627 55.3608 14.12C55.6168 14.0773 55.8408 14.0347 56.0328 13.992C56.2248 13.928 56.4061 13.8747 56.5768 13.832C56.7474 13.7893 56.9288 13.768 57.1208 13.768C57.5048 13.768 57.8141 13.9173 58.0488 14.216C58.3048 14.5147 58.4328 14.8773 58.4328 15.304C58.4328 15.6667 58.3048 16.104 58.0488 16.616C57.8141 17.1067 57.5474 17.6507 57.2488 18.248C56.9501 18.8453 56.6728 19.4747 56.4167 20.136C56.1821 20.776 56.0648 21.416 56.0648 22.056ZM65.8113 23.176C66.2379 23.176 66.6539 23.0373 67.0593 22.76C67.4859 22.4827 67.8593 22.1627 68.1793 21.8C68.5633 21.416 68.9153 20.9573 69.2353 20.424C69.2566 20.36 69.3099 20.2853 69.3953 20.2C69.4379 20.1573 69.5019 20.1147 69.5873 20.072C69.6726 20.008 69.7686 19.976 69.8753 19.976C70.0459 19.976 70.1953 20.04 70.3233 20.168C70.4726 20.296 70.5473 20.4453 70.5473 20.616C70.5473 20.7013 70.5259 20.7867 70.4833 20.872C70.4619 20.936 70.4299 21.0107 70.3873 21.096C70.3446 21.1813 70.3019 21.2773 70.2593 21.384C69.7899 22.1307 69.2673 22.792 68.6913 23.368C68.2006 23.8587 67.6139 24.3067 66.9313 24.712C66.2699 25.1173 65.5446 25.32 64.7552 25.32C64.2433 25.32 63.7206 25.224 63.1873 25.032C62.6539 24.8613 62.1633 24.6053 61.7153 24.264C61.2886 23.9227 60.9259 23.5173 60.6273 23.048C60.3499 22.5787 60.2112 22.0667 60.2112 21.512C60.2112 21.064 60.2646 20.52 60.3712 19.88C60.4779 19.2187 60.6273 18.504 60.8193 17.736C61.0113 16.968 61.2246 16.1573 61.4593 15.304C61.7153 14.4507 61.9819 13.608 62.2593 12.776H61.3953C61.2246 12.776 61.1393 12.68 61.1393 12.488C61.1393 12.3173 61.2353 12.0933 61.4273 11.816C61.6406 11.5173 61.8646 11.368 62.0993 11.368H62.7393C63.0593 10.4933 63.3686 9.69333 63.6673 8.968C63.9873 8.22133 64.2966 7.592 64.5953 7.08C64.6806 6.90933 64.7979 6.77067 64.9473 6.664C65.0966 6.536 65.2673 6.472 65.4593 6.472C65.6939 6.472 65.9499 6.54667 66.2273 6.696C66.5259 6.84533 66.8033 7.02667 67.0593 7.24C67.3153 7.432 67.5286 7.63467 67.6993 7.848C67.8699 8.06133 67.9553 8.24267 67.9553 8.392C67.9553 8.54133 67.8486 8.88267 67.6353 9.416C67.4433 9.928 67.1979 10.5787 66.8993 11.368H69.0433C69.2139 11.368 69.2993 11.464 69.2993 11.656C69.2993 11.7413 69.2673 11.848 69.2033 11.976C69.1393 12.104 69.0539 12.232 68.9473 12.36C68.8619 12.4667 68.7659 12.5627 68.6593 12.648C68.5526 12.7333 68.4459 12.776 68.3393 12.776H66.3553C66.0993 13.48 65.8326 14.2267 65.5553 15.016C65.2993 15.8053 65.0646 16.584 64.8513 17.352C64.6379 18.12 64.4566 18.8667 64.3073 19.592C64.1793 20.296 64.1153 20.936 64.1153 21.512C64.1153 22.0027 64.2753 22.408 64.5953 22.728C64.9366 23.0267 65.3419 23.176 65.8113 23.176ZM79.522 5.32C79.522 5.02133 79.394 4.872 79.138 4.872C78.8393 4.872 78.4447 5.20267 77.954 5.864C77.4847 6.52533 76.9833 7.38933 76.45 8.456C75.938 9.52267 75.426 10.7173 74.914 12.04C74.402 13.3627 73.986 14.696 73.666 16.04C74.0287 15.7413 74.4233 15.3147 74.85 14.76C75.298 14.2053 75.7353 13.5867 76.162 12.904C76.5887 12.2 77.0047 11.4747 77.41 10.728C77.8153 9.98133 78.1673 9.26667 78.466 8.584C78.786 7.88 79.042 7.24 79.234 6.664C79.426 6.088 79.522 5.64 79.522 5.32ZM73.922 25.32C73.282 25.32 72.6633 25.2133 72.066 25C71.49 24.7867 70.978 24.4773 70.53 24.072C70.082 23.6453 69.7193 23.1333 69.442 22.536C69.186 21.9387 69.058 21.2667 69.058 20.52C69.058 19.4533 69.1753 18.2693 69.41 16.968C69.666 15.6667 70.018 14.3653 70.466 13.064C70.914 11.7413 71.426 10.4613 72.002 9.224C72.5993 7.98667 73.25 6.888 73.954 5.928C74.658 4.94667 75.3833 4.168 76.13 3.592C76.898 3.016 77.666 2.728 78.434 2.728C78.7967 2.728 79.138 2.81333 79.458 2.984C79.778 3.15467 80.0553 3.368 80.29 3.624C80.546 3.88 80.7487 4.168 80.898 4.488C81.0473 4.78667 81.122 5.07467 81.122 5.352C81.122 5.8 80.994 6.376 80.738 7.08C80.5033 7.76267 80.1833 8.50933 79.778 9.32C79.3727 10.1093 78.8927 10.9307 78.338 11.784C77.8047 12.6373 77.2393 13.4693 76.642 14.28C76.066 15.0693 75.4793 15.816 74.882 16.52C74.2847 17.2027 73.7193 17.768 73.186 18.216C73.1433 18.472 73.1007 18.7387 73.058 19.016C73.0153 19.2507 72.9833 19.5173 72.962 19.816C72.9407 20.0933 72.93 20.3707 72.93 20.648C72.93 21.3947 73.1007 22.0027 73.442 22.472C73.8047 22.9413 74.3167 23.176 74.978 23.176C75.4047 23.176 75.8207 23.0373 76.226 22.76C76.6527 22.4827 77.026 22.1627 77.346 21.8C77.73 21.416 78.082 20.9573 78.402 20.424C78.4233 20.36 78.4767 20.2853 78.562 20.2C78.6047 20.1573 78.6687 20.1147 78.754 20.072C78.8393 20.008 78.9353 19.976 79.042 19.976C79.2127 19.976 79.362 20.04 79.49 20.168C79.6393 20.296 79.714 20.4453 79.714 20.616C79.714 20.7013 79.6927 20.7867 79.65 20.872C79.6287 20.936 79.5967 21.0107 79.554 21.096C79.5113 21.1813 79.4687 21.2773 79.426 21.384C78.9567 22.1307 78.434 22.792 77.858 23.368C77.3673 23.8587 76.7807 24.3067 76.098 24.712C75.4367 25.1173 74.7113 25.32 73.922 25.32ZM89.0943 24.168C90.1183 23.5707 90.9609 22.9627 91.6223 22.344C92.2836 21.704 92.8489 21.064 93.3183 20.424C93.3609 20.36 93.4249 20.2853 93.5103 20.2C93.5743 20.1573 93.6489 20.1147 93.7343 20.072C93.8196 20.008 93.9156 19.976 94.0223 19.976C94.2143 19.976 94.3743 20.04 94.5023 20.168C94.6303 20.296 94.6943 20.4453 94.6943 20.616C94.6943 20.7013 94.6729 20.7867 94.6303 20.872C94.5876 20.936 94.5449 21.0107 94.5023 21.096C94.4383 21.1813 94.3849 21.2773 94.3423 21.384C93.7876 22.1307 93.0623 22.8987 92.1663 23.688C91.2703 24.456 90.0863 25.224 88.6143 25.992C88.3369 26.952 88.0169 27.912 87.6543 28.872C87.3129 29.8533 86.8863 30.728 86.3743 31.496C85.8623 32.264 85.2436 32.8933 84.5183 33.384C83.8143 33.8747 82.9823 34.12 82.0223 34.12C81.5316 34.12 81.0623 34.0347 80.6143 33.864C80.1876 33.7147 79.8036 33.5013 79.4622 33.224C79.1423 32.968 78.8863 32.648 78.6943 32.264C78.5023 31.9013 78.4062 31.5067 78.4062 31.08C78.4062 30.5467 78.5663 30.0453 78.8863 29.576C79.2276 29.128 79.6969 28.7013 80.2943 28.296C80.8916 27.8907 81.5956 27.496 82.4062 27.112C83.2383 26.7493 84.1343 26.376 85.0943 25.992C85.2649 25.3947 85.4036 24.8293 85.5103 24.296C85.6169 23.7627 85.7129 23.304 85.7983 22.92C85.5423 23.2187 85.2436 23.5173 84.9023 23.816C84.5823 24.0933 84.2303 24.3493 83.8463 24.584C83.4623 24.7973 83.0569 24.968 82.6302 25.096C82.2249 25.2453 81.8196 25.32 81.4143 25.32C81.0516 25.32 80.6676 25.2347 80.2623 25.064C79.8783 24.9147 79.5263 24.7013 79.2063 24.424C78.8863 24.1467 78.6196 23.816 78.4062 23.432C78.1929 23.048 78.0862 22.6427 78.0862 22.216C78.0862 21.64 78.1822 20.9253 78.3742 20.072C78.5663 19.2187 78.7903 18.3547 79.0463 17.48C79.3023 16.584 79.5689 15.7413 79.8463 14.952C80.1449 14.1627 80.3903 13.544 80.5823 13.096C80.6676 12.9253 80.7849 12.7867 80.9343 12.68C81.0836 12.552 81.2543 12.488 81.4463 12.488C81.6809 12.488 81.9476 12.5627 82.2463 12.712C82.5449 12.8613 82.8223 13.032 83.0783 13.224C83.3343 13.416 83.5476 13.6187 83.7183 13.832C83.8889 14.024 83.9743 14.184 83.9743 14.312C83.9743 14.7387 83.8676 15.2613 83.6543 15.88C83.4409 16.4987 83.1956 17.1707 82.9183 17.896C82.6623 18.6213 82.4276 19.368 82.2143 20.136C82.0009 20.904 81.8943 21.64 81.8943 22.344C81.8943 22.6 81.9583 22.824 82.0863 23.016C82.2143 23.208 82.3956 23.304 82.6302 23.304C82.8863 23.304 83.1529 23.24 83.4303 23.112C83.7076 22.9627 83.9743 22.7813 84.2303 22.568C84.4863 22.3333 84.7209 22.088 84.9343 21.832C85.1476 21.5547 85.3183 21.288 85.4463 21.032C85.7449 20.4773 86.0223 19.8587 86.2783 19.176C86.5343 18.472 86.7689 17.768 86.9823 17.064C87.2169 16.3387 87.4196 15.6347 87.5903 14.952C87.7823 14.2693 87.9636 13.6507 88.1343 13.096C88.1769 12.904 88.2836 12.7547 88.4543 12.648C88.6249 12.5413 88.8169 12.488 89.0303 12.488C89.2649 12.488 89.5209 12.5627 89.7983 12.712C90.0969 12.8613 90.3743 13.032 90.6303 13.224C90.8863 13.416 91.0996 13.6187 91.2703 13.832C91.4409 14.024 91.5263 14.184 91.5263 14.312C91.5263 14.5467 91.4623 14.9627 91.3343 15.56C91.2063 16.1573 91.0463 16.8613 90.8543 17.672C90.6623 18.4613 90.4383 19.304 90.1823 20.2C89.9476 21.096 89.7129 21.9387 89.4783 22.728L89.0943 24.168ZM81.2223 32.424C81.5636 32.424 81.8943 32.296 82.2143 32.04C82.5343 31.8053 82.8329 31.4853 83.1102 31.08C83.3876 30.6747 83.6436 30.1947 83.8783 29.64C84.1129 29.1067 84.3263 28.552 84.5183 27.976C83.9423 28.296 83.4196 28.6267 82.9503 28.968C82.4809 29.3307 82.0756 29.6827 81.7343 30.024C81.3929 30.3653 81.1263 30.6853 80.9343 30.984C80.7423 31.304 80.6463 31.5707 80.6463 31.784C80.6463 32.2107 80.8383 32.424 81.2223 32.424Z" fill="url(#paint0_linear)"/>
</g>
<defs>
<filter id="filter0_d" x="0.26416" y="0.727997" width="98.4303" height="39.392" filterUnits="userSpaceOnUse" color-interpolation-filters="sRGB">
<feFlood flood-opacity="0" result="BackgroundImageFix"/>
<feColorMatrix in="SourceAlpha" type="matrix" values="0 0 0 0 0 0 0 0 0 0 0 0 0 0 0 0 0 0 127 0"/>
<feOffset dy="2"/>
<feGaussianBlur stdDeviation="2"/>
<feColorMatrix type="matrix" values="0 0 0 0 0 0 0 0 0 0 0 0 0 0 0 0 0 0 0.15 0"/>
<feBlend mode="normal" in2="BackgroundImageFix" result="effect1_dropShadow"/>
<feBlend mode="normal" in="SourceGraphic" in2="effect1_dropShadow" result="shape"/>
</filter>
<linearGradient id="paint0_linear" x1="49.5" y1="-8" x2="49.5" y2="39" gradientUnits="userSpaceOnUse">
<stop stop-color="#1958F5"/>
<stop offset="1" stop-color="#4620FE"/>
</linearGradient>
</defs>
</svg>
