<svg id="nav-icon6" xmlns="http://www.w3.org/2000/svg" width="12.027" height="12.027" viewBox="0 0 12.027 12.027">
  <path id="Path_16101" data-name="Path 16101" d="M5.361.038a6.026,6.026,0,0,1,6.666,6.087A6.036,6.036,0,0,1,8.4,11.533,6.008,6.008,0,0,1,1.443,9.91,6,6,0,0,1,.477,3.671,6.038,6.038,0,0,1,5.361.038ZM5.2.56A5.532,5.532,0,0,0,1.1,3.5a5.525,5.525,0,0,0,1.488,6.831,5.5,5.5,0,0,0,7.265-.368,5.516,5.516,0,0,0,.739-7.024A5.49,5.49,0,0,0,5.2.56Z"/>
  <path id="Path_16102" data-name="Path 16102" d="M5.643,1.779a1.333,1.333,0,0,1,1.7,1.264,1.209,1.209,0,0,1-.314.906,1.338,1.338,0,0,1-1.351.426,1.343,1.343,0,0,1-.038-2.6Zm.168.459a.858.858,0,1,0,.983.48A.859.859,0,0,0,5.811,2.238Z"/>
  <path id="Path_16103" data-name="Path 16103" d="M2.843,2.776c.168-.143.433.061.37.259a.573.573,0,0,1-.142.206A4.023,4.023,0,0,0,2,5.483,4.068,4.068,0,0,0,3.149,8.875c.214.188-.081.56-.307.377A4.414,4.414,0,0,1,1.49,6.015,4.415,4.415,0,0,1,2.843,2.776Z"/>
  <path id="Path_16104" data-name="Path 16104" d="M8.9,2.784a.231.231,0,0,1,.318.022,4.534,4.534,0,0,1,1.3,2.7A5.007,5.007,0,0,1,10.393,7.2a4.506,4.506,0,0,1-1.21,2.055c-.17.143-.436-.064-.37-.262a1.445,1.445,0,0,1,.274-.348A4.119,4.119,0,0,0,10.063,5.9a4.122,4.122,0,0,0-1-2.545c-.1-.115-.233-.212-.262-.368A.321.321,0,0,1,8.9,2.784Z"/>
  <path id="Path_16105" data-name="Path 16105" d="M5.757,4.938a1.344,1.344,0,0,1,1.28.446,1.453,1.453,0,0,1,.338.966c0,.935,0,1.87,0,2.806a1.412,1.412,0,0,1-.7,1.221,1.431,1.431,0,0,1-.932.15A1.385,1.385,0,0,1,4.657,9.212c0-.992-.009-1.984,0-2.976A1.371,1.371,0,0,1,5.757,4.938Zm0,.5a.894.894,0,0,0-.609.857c0,.972,0,1.945,0,2.918a.889.889,0,0,0,.863.856.9.9,0,0,0,.861-.856c0-.973,0-1.946,0-2.918a.9.9,0,0,0-.427-.772A.964.964,0,0,0,5.759,5.436Z"/>
</svg>
