<svg width="17" height="17" viewBox="0 0 17 17" fill="none" xmlns="http://www.w3.org/2000/svg">
<path d="M14.0223 3.32291C15.2937 4.67829 16.075 6.49906 16.075 8.5C16.075 10.4211 15.3547 12.1766 14.1721 13.5131C14.1701 13.5166 14.1675 13.5207 14.1642 13.5248C14.1596 13.5306 14.155 13.5351 14.1511 13.5384C14.1491 13.5401 14.1472 13.5415 14.1456 13.5427C12.8184 15.0273 10.9158 15.986 8.79158 16.0672L8.79103 16.0677L8.76114 16.0685L8.6161 16.0724L8.61565 16.0724C8.57824 16.0737 8.53935 16.075 8.5 16.075C8.46725 16.075 8.43459 16.0741 8.40306 16.0732C8.39671 16.073 8.39041 16.0728 8.38417 16.0726L8.23861 16.0688L8.20863 16.068L8.20808 16.0674C6.08487 15.9864 4.18325 15.0284 2.85592 13.5452C2.85573 13.5451 2.85552 13.5449 2.85527 13.5447L2.85489 13.5444C2.85162 13.5418 2.84257 13.5345 2.83436 13.5234M14.0223 3.32291L2.8944 13.4784M14.0223 3.32291C14.0193 3.31914 14.0163 3.31609 14.0139 3.31387C12.6938 1.91146 10.847 1.01117 8.79211 0.93284L8.79156 0.932286L8.76165 0.931492L8.6161 0.92763L8.61552 0.927613L8.6155 0.92761C8.57814 0.92633 8.5393 0.925 8.5 0.925C8.4607 0.925 8.42186 0.92633 8.38449 0.92761L8.38447 0.927613L8.3839 0.92763L8.23886 0.931492L8.20896 0.932289L8.20841 0.93284C6.15401 1.01115 4.30768 1.91099 2.98768 3.31278C2.98503 3.31513 2.98144 3.31866 2.97775 3.32338C1.70618 4.67848 0.925 6.49917 0.925 8.5C0.925 10.4209 1.64509 12.1761 2.82745 13.5125M14.0223 3.32291L2.89103 13.4712M2.83436 13.5234C2.83408 13.523 2.83381 13.5227 2.83353 13.5223L2.8944 13.4784M2.83436 13.5234C2.83463 13.5238 2.83491 13.5241 2.83519 13.5245L2.8944 13.4784M2.83436 13.5234C2.83153 13.5196 2.82926 13.5159 2.82745 13.5125M2.8944 13.4784C2.89343 13.4772 2.89298 13.4759 2.89253 13.4746C2.89214 13.4734 2.89175 13.4723 2.89103 13.4712M2.82745 13.5125C2.82995 13.5154 2.83244 13.5182 2.83494 13.521L2.89103 13.4712M2.82745 13.5125C2.82401 13.5061 2.82229 13.501 2.82175 13.4994L2.82166 13.4991C2.82103 13.4973 2.82171 13.4993 2.82249 13.5012C2.82352 13.5038 2.82543 13.508 2.82864 13.5128L2.89103 13.4712M3.16921 12.8866C2.25119 11.7729 1.67543 10.3682 1.60195 8.83362H4.55518C4.59112 9.88673 4.79645 10.9107 5.15559 11.8738C4.46101 12.1314 3.79555 12.4696 3.16921 12.8866ZM1.60195 8.16638C1.67913 6.55497 2.30993 5.08689 3.30945 3.94871C3.91976 4.3398 4.56668 4.65705 5.24008 4.89916C4.82657 5.92727 4.59391 7.03075 4.55518 8.16638H1.60195ZM13.6905 3.94871C14.6901 5.08689 15.3209 6.55497 15.3981 8.16638H12.4448C12.4061 7.03075 12.1734 5.92726 11.7599 4.89916C12.4333 4.65705 13.0802 4.3398 13.6905 3.94871ZM8.16638 1.85075V4.79226C7.482 4.76709 6.80967 4.66555 6.15805 4.48972C6.6511 3.50398 7.32838 2.60902 8.16638 1.85075ZM5.87843 5.10561C6.61907 5.3145 7.38589 5.43311 8.16638 5.45973V8.16638H5.22265C5.26175 7.10109 5.48561 6.0677 5.87843 5.10561ZM8.83362 5.45974C9.6141 5.43313 10.3809 5.31475 11.1218 5.10562C11.5146 6.06771 11.7385 7.1011 11.7776 8.16638H8.83362V5.45974ZM8.83362 4.79226V1.85075C9.67161 2.60902 10.3489 3.50398 10.8419 4.48972C10.1903 4.66555 9.518 4.76709 8.83362 4.79226ZM11.4891 4.28779C11.0239 3.33062 10.3964 2.45252 9.62894 1.68663C11.0026 1.91335 12.2405 2.54655 13.2155 3.45896C12.6676 3.79845 12.0897 4.07546 11.4891 4.28779ZM5.51089 4.2878C4.91029 4.07546 4.33237 3.79846 3.78477 3.45897C4.7595 2.54657 5.99755 1.91337 7.37127 1.68663C6.60358 2.45253 5.97614 3.33063 5.51089 4.2878ZM5.7882 11.6615C5.4516 10.7663 5.25848 9.81368 5.22264 8.83362H8.16638V11.2819C7.35356 11.3095 6.55649 11.4365 5.7882 11.6615ZM6.0483 12.2821C6.73346 12.0874 7.4429 11.9759 8.16638 11.9494V15.1492C7.26408 14.3327 6.54874 13.3578 6.0483 12.2821ZM10.9517 12.2818C10.4513 13.3578 9.73592 14.3327 8.83362 15.1492V11.9493C9.55707 11.9757 10.2665 12.0874 10.9517 12.2818ZM11.2116 11.6617C10.4435 11.4365 9.64643 11.3095 8.83362 11.2819V8.83362H11.7774C11.7415 9.81368 11.5484 10.7663 11.2116 11.6617ZM12.4448 8.83362H15.3981C15.3246 10.3682 14.749 11.773 13.8308 12.8866C13.2045 12.4696 12.539 12.1314 11.8444 11.8738C12.2038 10.9107 12.4089 9.88672 12.4448 8.83362ZM7.37113 15.3134C5.92093 15.074 4.62181 14.3819 3.62403 13.3863C4.18902 13.0191 4.78724 12.7197 5.41055 12.4904C5.88471 13.5327 6.54537 14.4887 7.37113 15.3134ZM11.5895 12.4904C12.2127 12.7197 12.8108 13.0191 13.376 13.3863C12.3782 14.3819 11.0791 15.074 9.62892 15.3134C10.4547 14.4889 11.1153 13.533 11.5895 12.4904Z" fill="#555555" stroke="#555555" stroke-width="0.15"/>
</svg>
